<?xml version="1.0" encoding="utf-8"?>
<!-- Generator: Adobe Illustrator 19.0.0, SVG Export Plug-In . SVG Version: 6.00 Build 0)  -->
<svg version="1.1" id="图层_1" xmlns="http://www.w3.org/2000/svg" xmlns:xlink="http://www.w3.org/1999/xlink" x="0px" y="0px"
	 viewBox="-285 377 40 40" style="enable-background:new -285 377 40 40;" xml:space="preserve">
<style type="text/css">
	.st0{fill:none;stroke:#000000;stroke-miterlimit:10;}
</style>
<g>
	<g>
		<path d="M-259.3,398.7l5.5-5.5l-7.1-7.1l-5.5,5.5l0,0c-0.5-0.5-1.5-0.5-2,0l-4,4c-0.6,0.6-0.6,1.5,0,2l2.4,2.4l-2.9,2.9l0.4,0.4
			l-2.7,2.7c-0.2,0.2-0.3,0.5-0.3,0.8c0,0.3,0.1,0.6,0.3,0.8c0.2,0.2,0.5,0.3,0.8,0.3c0.3,0,0.6-0.1,0.8-0.3l2.7-2.7l0.4,0.4
			l2.9-2.9l2.4,2.4c0.3,0.3,0.6,0.4,1,0.4s0.8-0.2,1-0.4l4-4C-258.7,400.2-258.7,399.3-259.3,398.7L-259.3,398.7z M-260.8,387.2l6,6
			l-5,5l-6-6L-260.8,387.2z M-274.1,407c-0.1,0.1-0.4,0.1-0.5,0c-0.1-0.1-0.1-0.2-0.1-0.3c0-0.1,0-0.2,0.1-0.3l2.7-2.7l0.5,0.5
			L-274.1,407z M-270.5,404.2l-1.3-1.3l2.4-2.4l1.3,1.3L-270.5,404.2z M-259.8,400.3l-4,4c-0.3,0.3-0.7,0.3-1,0l-2.4-2.4l0,0
			l-2.4-2.4l0,0l-2.4-2.4c-0.3-0.3-0.3-0.7,0-1l4-4c0.1-0.1,0.3-0.2,0.5-0.2c0.2,0,0.4,0.1,0.5,0.2l0,0l0,0l7.1,7.1l0,0l0,0
			C-259.5,399.5-259.5,400-259.8,400.3z"/>
		<path d="M-261.4,388.8l-2.4,2.4l2.1,2.1l2.4-2.4L-261.4,388.8z M-262.7,391.1l1.3-1.3l1,1l-1.3,1.3L-262.7,391.1z"/>
		<path d="M-256.4,393.7l-2.1-2.1l-2.4,2.4l2.1,2.1L-256.4,393.7z M-258.5,392.7l1,1l-1.3,1.3l-1-1L-258.5,392.7z"/>
	</g>
</g>
<circle class="st0" cx="-265" cy="397.2" r="17.2"/>
</svg>
