<?xml version="1.0" encoding="utf-8"?>
<!-- Generator: Adobe Illustrator 19.0.0, SVG Export Plug-In . SVG Version: 6.00 Build 0)  -->
<svg version="1.1" id="图层_1" xmlns="http://www.w3.org/2000/svg" xmlns:xlink="http://www.w3.org/1999/xlink" x="0px" y="0px"
	 viewBox="-285 377 40 40" style="enable-background:new -285 377 40 40;" xml:space="preserve">
<style type="text/css">
	.st0{fill:none;stroke:#000000;stroke-miterlimit:10;}
	.st1{fill:#111111;}
</style>
<circle class="st0" cx="-265" cy="397.2" r="17.2"/>
<g>
	<g>
		<g>
			<g>
				<g>
					<path class="st1" d="M-256.2,397.7c-0.1,0-0.3,0-0.4-0.1c-2.2-2.2-5.3-3.5-8.4-3.5s-6.2,1.2-8.4,3.4c-0.2,0.2-0.6,0.2-0.8,0
						c-0.2-0.2-0.2-0.6,0-0.8c2.4-2.4,5.8-3.9,9.3-3.9s6.8,1.3,9.3,3.9c0.2,0.2,0.2,0.6,0,0.8C-255.9,397.6-256.1,397.7-256.2,397.7
						z"/>
				</g>
				<g>
					<path class="st1" d="M-259.2,400.6c-0.1,0-0.3,0-0.4-0.1c-3-3-8-3-11.1,0c-0.2,0.2-0.6,0.2-0.8,0c-0.2-0.2-0.2-0.6,0-0.8
						c3.4-3.4,9.1-3.4,12.6,0c0.2,0.2,0.2,0.6,0,0.8C-258.9,400.6-259,400.6-259.2,400.6z"/>
				</g>
				<g>
					<path class="st1" d="M-262.1,403.6c-0.1,0-0.3,0-0.4-0.1c-1.4-1.4-3.8-1.4-5.1,0c-0.2,0.2-0.6,0.2-0.8,0
						c-0.2-0.2-0.2-0.6,0-0.8c1.9-1.9,4.9-1.9,6.7,0c0.2,0.2,0.2,0.6,0,0.8C-261.9,403.5-262,403.6-262.1,403.6z"/>
				</g>
				<g>
					<path class="st1" d="M-265.1,406.6c-0.1,0-0.3-0.1-0.4-0.2c-0.1-0.1-0.1-0.2-0.1-0.3s0-0.3,0.1-0.4c0.2-0.2,0.6-0.2,0.8,0
						c0.1,0.1,0.2,0.2,0.2,0.4s-0.1,0.3-0.1,0.3C-264.8,406.5-265,406.6-265.1,406.6z"/>
				</g>
			</g>
		</g>
	</g>
</g>
</svg>
